<svg xmlns="http://www.w3.org/2000/svg" width="1200" height="630" viewBox="0 0 1200 630">

  <!-- BG: lime -->
  <rect width="1200" height="630" fill="#C8F500"/>

  <!-- ── RIGHT SIDE: flat product label illustration ── -->

  <!-- Label shadow -->
  <rect x="674" y="86" width="440" height="472" fill="#111" opacity="0.12" rx="3"/>

  <!-- Label body -->
  <rect x="666" y="80" width="440" height="472" fill="#fff" rx="3"/>

  <!-- Label top color band — dark -->
  <rect x="666" y="80" width="440" height="72" fill="#111" rx="3"/>
  <rect x="666" y="128" width="440" height="24" fill="#111"/>

  <!-- Brand on label -->
  <text x="886" y="122"
    font-family="'Bebas Neue','Arial Black',sans-serif"
    font-size="30" fill="#C8F500" text-anchor="middle" letter-spacing="0.08em">ЧЕСТНЫЙ ЗНАК</text>

  <!-- Product name area -->
  <text x="886" y="182"
    font-family="'Bebas Neue','Arial Black',sans-serif"
    font-size="19" fill="#111" text-anchor="middle" letter-spacing="0.04em">МОЛОКО ПАСТЕРИЗОВАННОЕ</text>
  <text x="886" y="204"
    font-family="'Inter','Arial',sans-serif"
    font-size="12" fill="#666" text-anchor="middle">3,2% · 1 литр · ГОСТ 31450-2013</text>

  <!-- Horizontal rule -->
  <rect x="686" y="216" width="400" height="1" fill="#ddd"/>

  <!-- DataMatrix on label — flat grid style -->
  <g transform="translate(696, 228)">
    <rect x="0" y="0" width="140" height="140" fill="#f8f8f8" rx="2"/>
    <!-- L-frame bottom -->
    <rect x="8" y="124" width="124" height="8" fill="#111"/>
    <!-- L-frame left -->
    <rect x="8" y="8" width="8" height="124" fill="#111"/>
    <!-- Top alternating -->
    <g fill="#111">
      <rect x="16" y="8" width="8" height="8"/>
      <rect x="32" y="8" width="8" height="8"/>
      <rect x="48" y="8" width="8" height="8"/>
      <rect x="64" y="8" width="8" height="8"/>
      <rect x="80" y="8" width="8" height="8"/>
      <rect x="96" y="8" width="8" height="8"/>
      <rect x="112" y="8" width="8" height="8"/>
      <rect x="124" y="8" width="8" height="8"/>
    </g>
    <!-- Right alternating -->
    <g fill="#111">
      <rect x="124" y="24" width="8" height="8"/>
      <rect x="124" y="40" width="8" height="8"/><!-- skip -->
      <rect x="124" y="72" width="8" height="8"/>
      <rect x="124" y="88" width="8" height="8"/><!-- skip -->
      <rect x="124" y="104" width="8" height="8"/><!-- skip -->
      <rect x="124" y="116" width="8" height="8"/>
    </g>
    <!-- Data cells - lime -->
    <g fill="#C8F500">
      <rect x="24" y="24" width="8" height="8"/>
      <rect x="40" y="24" width="8" height="8"/>
      <rect x="64" y="24" width="8" height="8"/>
      <rect x="80" y="24" width="8" height="8"/>
      <rect x="104" y="24" width="8" height="8"/>
      <rect x="24" y="40" width="8" height="8"/>
      <rect x="56" y="40" width="8" height="8"/>
      <rect x="88" y="40" width="8" height="8"/>
      <rect x="112" y="40" width="8" height="8"/>
      <rect x="32" y="56" width="8" height="8"/>
      <rect x="72" y="56" width="8" height="8"/>
      <rect x="96" y="56" width="8" height="8"/>
      <rect x="24" y="72" width="8" height="8"/>
      <rect x="48" y="72" width="8" height="8"/>
      <rect x="80" y="72" width="8" height="8"/>
      <rect x="104" y="72" width="8" height="8"/>
      <rect x="40" y="88" width="8" height="8"/>
      <rect x="64" y="88" width="8" height="8"/>
      <rect x="88" y="88" width="8" height="8"/>
      <rect x="112" y="88" width="8" height="8"/>
      <rect x="24" y="104" width="8" height="8"/>
      <rect x="56" y="104" width="8" height="8"/>
      <rect x="96" y="104" width="8" height="8"/>
    </g>
    <!-- Dark cells -->
    <g fill="#111">
      <rect x="32" y="24" width="8" height="8"/>
      <rect x="48" y="24" width="8" height="8"/>
      <rect x="72" y="24" width="8" height="8"/>
      <rect x="96" y="24" width="8" height="8"/>
      <rect x="112" y="24" width="8" height="8"/>
      <rect x="32" y="40" width="8" height="8"/>
      <rect x="48" y="40" width="8" height="8"/>
      <rect x="72" y="40" width="8" height="8"/>
      <rect x="96" y="40" width="8" height="8"/>
      <rect x="24" y="56" width="8" height="8"/>
      <rect x="48" y="56" width="8" height="8"/>
      <rect x="56" y="56" width="8" height="8"/>
      <rect x="88" y="56" width="8" height="8"/>
      <rect x="112" y="56" width="8" height="8"/>
      <rect x="32" y="72" width="8" height="8"/>
      <rect x="64" y="72" width="8" height="8"/>
      <rect x="96" y="72" width="8" height="8"/>
      <rect x="112" y="72" width="8" height="8"/>
      <rect x="24" y="88" width="8" height="8"/>
      <rect x="48" y="88" width="8" height="8"/>
      <rect x="72" y="88" width="8" height="8"/>
      <rect x="96" y="88" width="8" height="8"/>
      <rect x="32" y="104" width="8" height="8"/>
      <rect x="48" y="104" width="8" height="8"/>
      <rect x="72" y="104" width="8" height="8"/>
      <rect x="88" y="104" width="8" height="8"/>
      <rect x="112" y="104" width="8" height="8"/>
    </g>
    <!-- GS1 text under -->
    <text x="70" y="156" font-family="'Inter','Arial',sans-serif"
      font-size="9" fill="#999" text-anchor="middle" letter-spacing="0.06em">GS1 DataMatrix</text>
  </g>

  <!-- Product info rows -->
  <g font-family="'Inter','Arial',sans-serif" font-size="11.5" fill="#333">
    <text x="856" y="258">01 04607087031200</text>
    <text x="856" y="276">21 АА3Б21001</text>
    <text x="856" y="294">17 260601 · 10 П5ЗЛА</text>
    <text x="856" y="312" fill="#999" font-size="10">GTIN · серийный номер · дата · партия</text>
  </g>

  <!-- Barcode -->
  <g transform="translate(686, 332)">
    <rect x="0" y="0" width="400" height="72" fill="#f8f8f8" rx="2"/>
    <!-- Simplified barcode bars -->
    <g fill="#111">
      <rect x="12" y="6" width="2" height="50"/>
      <rect x="16" y="6" width="5" height="50"/>
      <rect x="24" y="6" width="2" height="50"/>
      <rect x="29" y="6" width="3" height="50"/>
      <rect x="35" y="6" width="5" height="50"/>
      <rect x="43" y="6" width="2" height="50"/>
      <rect x="48" y="6" width="4" height="50"/>
      <rect x="55" y="6" width="2" height="50"/>
      <rect x="60" y="6" width="3" height="50"/>
      <rect x="66" y="6" width="5" height="50"/>
      <rect x="74" y="6" width="2" height="50"/>
      <rect x="80" y="6" width="4" height="50"/>
      <rect x="87" y="6" width="2" height="50"/>
      <rect x="92" y="6" width="3" height="50"/>
      <rect x="98" y="6" width="5" height="50"/>
      <rect x="107" y="6" width="2" height="50"/>
      <!-- center guard -->
      <rect x="194" y="4" width="2" height="54"/>
      <rect x="198" y="4" width="2" height="54"/>
      <!-- right half -->
      <rect x="206" y="6" width="4" height="50"/>
      <rect x="213" y="6" width="2" height="50"/>
      <rect x="218" y="6" width="3" height="50"/>
      <rect x="224" y="6" width="5" height="50"/>
      <rect x="232" y="6" width="2" height="50"/>
      <rect x="238" y="6" width="4" height="50"/>
      <rect x="245" y="6" width="2" height="50"/>
      <rect x="250" y="6" width="3" height="50"/>
      <rect x="256" y="6" width="5" height="50"/>
      <rect x="264" y="6" width="2" height="50"/>
      <rect x="270" y="6" width="4" height="50"/>
      <rect x="278" y="6" width="2" height="50"/>
      <rect x="283" y="6" width="3" height="50"/>
      <rect x="289" y="6" width="5" height="50"/>
      <rect x="298" y="6" width="2" height="50"/>
      <rect x="304" y="6" width="4" height="50"/>
      <rect x="311" y="6" width="2" height="50"/>
      <rect x="316" y="6" width="3" height="50"/>
      <rect x="322" y="6" width="5" height="50"/>
      <rect x="331" y="6" width="2" height="50"/>
      <rect x="337" y="6" width="4" height="50"/>
      <rect x="345" y="6" width="2" height="50"/>
      <rect x="350" y="6" width="3" height="50"/>
      <rect x="356" y="6" width="5" height="50"/>
      <!-- right guard -->
      <rect x="374" y="4" width="2" height="54"/>
      <rect x="378" y="4" width="5" height="54"/>
      <rect x="385" y="4" width="2" height="54"/>
    </g>
    <text x="200" y="66" font-family="monospace" font-size="10" fill="#666" text-anchor="middle">4 607087 031200 6</text>
  </g>

  <!-- Bottom label info -->
  <text x="886" y="432" font-family="'Inter','Arial',sans-serif" font-size="11" fill="#666" text-anchor="middle">Годен до: 01.07.2026 · Хранить при t° 2–6°C</text>
  <text x="886" y="450" font-family="'Inter','Arial',sans-serif" font-size="11" fill="#888" text-anchor="middle">ООО «Молочный завод» · Россия</text>

  <!-- Verified checkmark -->
  <rect x="1046" y="462" width="50" height="50" fill="#C8F500" rx="3"/>
  <rect x="1046" y="462" width="50" height="50" fill="none" stroke="#111" stroke-width="2" rx="3"/>
  <text x="1071" y="496" font-family="'Bebas Neue','Arial Black',sans-serif"
    font-size="28" fill="#111" text-anchor="middle">✓</text>

  <!-- ── LEFT SIDE: text ── -->

  <!-- Category pill -->
  <rect x="60" y="60" width="160" height="26" fill="#111"/>
  <text x="74" y="78" font-family="'Inter','Arial',sans-serif"
    font-size="11" font-weight="700" fill="#C8F500" letter-spacing="0.1em">МАРКИРОВКА</text>

  <!-- Rule -->
  <rect x="60" y="104" width="160" height="2" fill="#111" opacity="0.3"/>

  <!-- Headline -->
  <text x="60" y="188"
    font-family="'Bebas Neue','Arial Black',sans-serif"
    font-size="88" fill="#111" letter-spacing="0.01em">ЧЕСТНЫЙ</text>
  <text x="60" y="276"
    font-family="'Bebas Neue','Arial Black',sans-serif"
    font-size="88" fill="#111" letter-spacing="0.01em">ЗНАК:</text>
  <text x="60" y="364"
    font-family="'Bebas Neue','Arial Black',sans-serif"
    font-size="88" fill="#111" opacity="0.3" letter-spacing="0.01em">УЧЁТ И</text>

  <!-- Description -->
  <text x="60" y="415" font-family="'Inter','Arial',sans-serif"
    font-size="15" fill="#556600">DataMatrix — на каждой единице.</text>
  <text x="60" y="436" font-family="'Inter','Arial',sans-serif"
    font-size="15" fill="#556600">Проверяется на кассе в режиме</text>
  <text x="60" y="457" font-family="'Inter','Arial',sans-serif"
    font-size="15" fill="#556600">реального времени.</text>

  <!-- Info block -->
  <rect x="60" y="500" width="220" height="60" fill="#111"/>
  <text x="76" y="522" font-family="'Inter','Arial',sans-serif"
    font-size="10" font-weight="700" fill="#888" letter-spacing="0.1em">КАТЕГОРИЙ МАРКИРОВКИ</text>
  <text x="76" y="550" font-family="'Bebas Neue','Arial Black',sans-serif"
    font-size="30" fill="#C8F500" letter-spacing="0.04em">БОЛЕЕ 60 В 2026</text>

  <!-- Footer -->
  <text x="60" y="600" font-family="'Inter','Arial',sans-serif"
    font-size="11" fill="#8aaa00" letter-spacing="0.08em">ЭТИКЕТКА · МЕДИА ДЛЯ БИЗНЕСА</text>

</svg>
