<svg xmlns="http://www.w3.org/2000/svg" width="1200" height="630" viewBox="0 0 1200 630">

  <!-- BG -->
  <rect width="1200" height="630" fill="#111"/>

  <!-- ── RIGHT SIDE: flat DataMatrix illustration ── -->

  <!-- Outer white frame of the code -->
  <rect x="640" y="80" width="480" height="480" fill="#EDE8DF" rx="4"/>
  <!-- Quiet zone inner -->
  <rect x="660" y="100" width="440" height="440" fill="#EDE8DF"/>

  <!-- DataMatrix finder pattern L-bar -->
  <!-- Bottom solid bar -->
  <rect x="660" y="520" width="440" height="20" fill="#111"/>
  <!-- Left solid bar -->
  <rect x="660" y="100" width="20" height="440" fill="#111"/>
  <!-- Top alternating bar -->
  <g fill="#111">
    <rect x="680" y="100" width="20" height="20"/>
    <rect x="720" y="100" width="20" height="20"/>
    <rect x="760" y="100" width="20" height="20"/>
    <rect x="800" y="100" width="20" height="20"/>
    <rect x="840" y="100" width="20" height="20"/>
    <rect x="880" y="100" width="20" height="20"/>
    <rect x="920" y="100" width="20" height="20"/>
    <rect x="960" y="100" width="20" height="20"/>
    <rect x="1000" y="100" width="20" height="20"/>
    <rect x="1040" y="100" width="20" height="20"/>
    <rect x="1080" y="100" width="20" height="20"/>
  </g>
  <!-- Right alternating bar -->
  <g fill="#111">
    <rect x="1080" y="140" width="20" height="20"/>
    <rect x="1080" y="200" width="20" height="20"/>
    <rect x="1080" y="260" width="20" height="20"/>
    <rect x="1080" y="320" width="20" height="20"/>
    <rect x="1080" y="380" width="20" height="20"/>
    <rect x="1080" y="440" width="20" height="20"/>
    <rect x="1080" y="500" width="20" height="20"/>
  </g>

  <!-- Data cells — lime accent cells -->
  <g fill="#C8F500">
    <rect x="700" y="140" width="20" height="20"/>
    <rect x="740" y="140" width="20" height="20"/>
    <rect x="800" y="140" width="20" height="20"/>
    <rect x="860" y="140" width="20" height="20"/>
    <rect x="900" y="140" width="20" height="20"/>
    <rect x="960" y="140" width="20" height="20"/>
    <rect x="1020" y="140" width="20" height="20"/>
    <rect x="1060" y="140" width="20" height="20"/>

    <rect x="700" y="180" width="20" height="20"/>
    <rect x="760" y="180" width="20" height="20"/>
    <rect x="820" y="180" width="20" height="20"/>
    <rect x="880" y="180" width="20" height="20"/>
    <rect x="940" y="180" width="20" height="20"/>
    <rect x="1000" y="180" width="20" height="20"/>
    <rect x="1040" y="180" width="20" height="20"/>

    <rect x="720" y="220" width="20" height="20"/>
    <rect x="780" y="220" width="20" height="20"/>
    <rect x="840" y="220" width="20" height="20"/>
    <rect x="900" y="220" width="20" height="20"/>
    <rect x="960" y="220" width="20" height="20"/>
    <rect x="1060" y="220" width="20" height="20"/>

    <rect x="700" y="260" width="20" height="20"/>
    <rect x="760" y="260" width="20" height="20"/>
    <rect x="820" y="260" width="20" height="20"/>
    <rect x="920" y="260" width="20" height="20"/>
    <rect x="980" y="260" width="20" height="20"/>
    <rect x="1020" y="260" width="20" height="20"/>

    <rect x="740" y="300" width="20" height="20"/>
    <rect x="800" y="300" width="20" height="20"/>
    <rect x="860" y="300" width="20" height="20"/>
    <rect x="940" y="300" width="20" height="20"/>
    <rect x="1000" y="300" width="20" height="20"/>
    <rect x="1060" y="300" width="20" height="20"/>

    <rect x="700" y="340" width="20" height="20"/>
    <rect x="760" y="340" width="20" height="20"/>
    <rect x="820" y="340" width="20" height="20"/>
    <rect x="880" y="340" width="20" height="20"/>
    <rect x="960" y="340" width="20" height="20"/>
    <rect x="1020" y="340" width="20" height="20"/>

    <rect x="720" y="380" width="20" height="20"/>
    <rect x="780" y="380" width="20" height="20"/>
    <rect x="840" y="380" width="20" height="20"/>
    <rect x="900" y="380" width="20" height="20"/>
    <rect x="1000" y="380" width="20" height="20"/>
    <rect x="1060" y="380" width="20" height="20"/>

    <rect x="700" y="420" width="20" height="20"/>
    <rect x="760" y="420" width="20" height="20"/>
    <rect x="820" y="420" width="20" height="20"/>
    <rect x="880" y="420" width="20" height="20"/>
    <rect x="940" y="420" width="20" height="20"/>
    <rect x="1020" y="420" width="20" height="20"/>

    <rect x="740" y="460" width="20" height="20"/>
    <rect x="800" y="460" width="20" height="20"/>
    <rect x="860" y="460" width="20" height="20"/>
    <rect x="960" y="460" width="20" height="20"/>
    <rect x="1040" y="460" width="20" height="20"/>

    <rect x="700" y="500" width="20" height="20"/>
    <rect x="780" y="500" width="20" height="20"/>
    <rect x="840" y="500" width="20" height="20"/>
    <rect x="900" y="500" width="20" height="20"/>
    <rect x="980" y="500" width="20" height="20"/>
    <rect x="1020" y="500" width="20" height="20"/>
    <rect x="1060" y="500" width="20" height="20"/>
  </g>

  <!-- Dark data cells -->
  <g fill="#111">
    <rect x="720" y="140" width="20" height="20"/>
    <rect x="780" y="140" width="20" height="20"/>
    <rect x="840" y="140" width="20" height="20"/>
    <rect x="920" y="140" width="20" height="20"/>
    <rect x="980" y="140" width="20" height="20"/>
    <rect x="1040" y="140" width="20" height="20"/>

    <rect x="720" y="180" width="20" height="20"/>
    <rect x="800" y="180" width="20" height="20"/>
    <rect x="840" y="180" width="20" height="20"/>
    <rect x="900" y="180" width="20" height="20"/>
    <rect x="960" y="180" width="20" height="20"/>
    <rect x="1020" y="180" width="20" height="20"/>
    <rect x="1060" y="180" width="20" height="20"/>

    <rect x="700" y="220" width="20" height="20"/>
    <rect x="740" y="220" width="20" height="20"/>
    <rect x="800" y="220" width="20" height="20"/>
    <rect x="860" y="220" width="20" height="20"/>
    <rect x="920" y="220" width="20" height="20"/>
    <rect x="980" y="220" width="20" height="20"/>
    <rect x="1020" y="220" width="20" height="20"/>

    <rect x="720" y="260" width="20" height="20"/>
    <rect x="800" y="260" width="20" height="20"/>
    <rect x="860" y="260" width="20" height="20"/>
    <rect x="940" y="260" width="20" height="20"/>
    <rect x="1000" y="260" width="20" height="20"/>
    <rect x="1060" y="260" width="20" height="20"/>

    <rect x="700" y="300" width="20" height="20"/>
    <rect x="760" y="300" width="20" height="20"/>
    <rect x="820" y="300" width="20" height="20"/>
    <rect x="880" y="300" width="20" height="20"/>
    <rect x="920" y="300" width="20" height="20"/>
    <rect x="980" y="300" width="20" height="20"/>
    <rect x="1020" y="300" width="20" height="20"/>

    <rect x="720" y="340" width="20" height="20"/>
    <rect x="780" y="340" width="20" height="20"/>
    <rect x="840" y="340" width="20" height="20"/>
    <rect x="900" y="340" width="20" height="20"/>
    <rect x="940" y="340" width="20" height="20"/>
    <rect x="980" y="340" width="20" height="20"/>
    <rect x="1040" y="340" width="20" height="20"/>
    <rect x="1060" y="340" width="20" height="20"/>

    <rect x="700" y="380" width="20" height="20"/>
    <rect x="740" y="380" width="20" height="20"/>
    <rect x="800" y="380" width="20" height="20"/>
    <rect x="860" y="380" width="20" height="20"/>
    <rect x="920" y="380" width="20" height="20"/>
    <rect x="940" y="380" width="20" height="20"/>
    <rect x="980" y="380" width="20" height="20"/>
    <rect x="1020" y="380" width="20" height="20"/>

    <rect x="720" y="420" width="20" height="20"/>
    <rect x="780" y="420" width="20" height="20"/>
    <rect x="840" y="420" width="20" height="20"/>
    <rect x="900" y="420" width="20" height="20"/>
    <rect x="960" y="420" width="20" height="20"/>
    <rect x="1000" y="420" width="20" height="20"/>
    <rect x="1040" y="420" width="20" height="20"/>
    <rect x="1060" y="420" width="20" height="20"/>

    <rect x="700" y="460" width="20" height="20"/>
    <rect x="720" y="460" width="20" height="20"/>
    <rect x="760" y="460" width="20" height="20"/>
    <rect x="820" y="460" width="20" height="20"/>
    <rect x="880" y="460" width="20" height="20"/>
    <rect x="920" y="460" width="20" height="20"/>
    <rect x="980" y="460" width="20" height="20"/>
    <rect x="1000" y="460" width="20" height="20"/>
    <rect x="1060" y="460" width="20" height="20"/>

    <rect x="720" y="500" width="20" height="20"/>
    <rect x="740" y="500" width="20" height="20"/>
    <rect x="800" y="500" width="20" height="20"/>
    <rect x="860" y="500" width="20" height="20"/>
    <rect x="940" y="500" width="20" height="20"/>
    <rect x="1000" y="500" width="20" height="20"/>
  </g>

  <!-- GS1 label strip under code -->
  <rect x="660" y="540" width="440" height="28" fill="#111"/>
  <text x="880" y="559"
    font-family="'Inter', 'Arial', sans-serif"
    font-size="11" fill="#C8F500" text-anchor="middle" letter-spacing="0.12em"
    font-weight="700">GS1 DataMatrix · Честный знак</text>

  <!-- ── LEFT SIDE: text ── -->

  <!-- Category pill -->
  <rect x="60" y="60" width="130" height="26" fill="#C8F500"/>
  <text x="74" y="78" font-family="'Inter','Arial',sans-serif"
    font-size="11" font-weight="700" fill="#111" letter-spacing="0.1em">ТС ПИОТ</text>

  <!-- Eyebrow line -->
  <rect x="60" y="104" width="160" height="2" fill="#C8F500" opacity="0.6"/>

  <!-- Headline -->
  <text x="60" y="185"
    font-family="'Bebas Neue','Arial Black',sans-serif"
    font-size="88" fill="#fff" letter-spacing="0.02em">ТС ПИОТ:</text>
  <text x="60" y="275"
    font-family="'Bebas Neue','Arial Black',sans-serif"
    font-size="88" fill="#C8F500" letter-spacing="0.02em">КАК</text>
  <text x="60" y="360"
    font-family="'Bebas Neue','Arial Black',sans-serif"
    font-size="88" fill="#fff" letter-spacing="0.02em">РАБОТАЕТ</text>

  <!-- Description -->
  <text x="60" y="415"
    font-family="'Inter','Arial',sans-serif"
    font-size="15" fill="#555" letter-spacing="0.01em">Программный модуль для онлайн-кассы.</text>
  <text x="60" y="436"
    font-family="'Inter','Arial',sans-serif"
    font-size="15" fill="#555">Сканирует DataMatrix — проверяет</text>
  <text x="60" y="457"
    font-family="'Inter','Arial',sans-serif"
    font-size="15" fill="#555">статус товара в «Честном знаке».</text>

  <!-- Date block -->
  <rect x="60" y="500" width="200" height="60" fill="#C8F500"/>
  <text x="76" y="524" font-family="'Inter','Arial',sans-serif"
    font-size="10" font-weight="700" fill="#8aaa00" letter-spacing="0.1em">ОБЯЗАТЕЛЕН С</text>
  <text x="76" y="552" font-family="'Bebas Neue','Arial Black',sans-serif"
    font-size="28" fill="#111" letter-spacing="0.04em">28 ДЕКАБРЯ 2025</text>

  <!-- Footer -->
  <text x="60" y="600"
    font-family="'Inter','Arial',sans-serif"
    font-size="11" fill="#444" letter-spacing="0.08em">ЭТИКЕТКА · МЕДИА ДЛЯ БИЗНЕСА</text>

</svg>
