<svg xmlns="http://www.w3.org/2000/svg" width="1200" height="630" viewBox="0 0 1200 630">
  <defs>
    <radialGradient id="bg-grad" cx="55%" cy="45%" r="50%">
      <stop offset="0%" stop-color="#071A10"/>
      <stop offset="100%" stop-color="#030D08"/>
    </radialGradient>
    <linearGradient id="label-grad" x1="0" y1="0" x2="0" y2="1">
      <stop offset="0%" stop-color="#F4F0E8"/>
      <stop offset="100%" stop-color="#DDD8CC"/>
    </linearGradient>
    <filter id="shadow-label">
      <feDropShadow dx="4" dy="6" stdDeviation="8" flood-color="#000" flood-opacity="0.5"/>
    </filter>
    <filter id="glow-teal">
      <feGaussianBlur stdDeviation="5" result="blur"/>
      <feMerge><feMergeNode in="blur"/><feMergeNode in="SourceGraphic"/></feMerge>
    </filter>
  </defs>

  <!-- BG -->
  <rect width="1200" height="630" fill="url(#bg-grad)"/>

  <!-- Subtle diagonal barcode texture in background -->
  <g stroke="#0A2015" stroke-width="1" opacity="0.3">
    <line x1="500" y1="0" x2="500" y2="630"/>
    <line x1="503" y1="0" x2="503" y2="630"/>
    <line x1="508" y1="0" x2="508" y2="630"/>
    <line x1="511" y1="0" x2="511" y2="630"/>
    <line x1="520" y1="0" x2="520" y2="630"/>
    <line x1="523" y1="0" x2="523" y2="630"/>
    <line x1="532" y1="0" x2="532" y2="630"/>
    <line x1="537" y1="0" x2="537" y2="630"/>
    <line x1="542" y1="0" x2="542" y2="630"/>
    <line x1="549" y1="0" x2="549" y2="630"/>
    <line x1="558" y1="0" x2="558" y2="630"/>
    <line x1="565" y1="0" x2="565" y2="630"/>
    <line x1="574" y1="0" x2="574" y2="630"/>
    <line x1="583" y1="0" x2="583" y2="630"/>
    <line x1="594" y1="0" x2="594" y2="630"/>
    <line x1="605" y1="0" x2="605" y2="630"/>
    <line x1="616" y1="0" x2="616" y2="630"/>
    <line x1="619" y1="0" x2="619" y2="630"/>
    <line x1="628" y1="0" x2="628" y2="630"/>
    <line x1="631" y1="0" x2="631" y2="630"/>
    <line x1="640" y1="0" x2="640" y2="630"/>
    <line x1="649" y1="0" x2="649" y2="630"/>
    <line x1="660" y1="0" x2="660" y2="630"/>
    <line x1="665" y1="0" x2="665" y2="630"/>
  </g>

  <!-- Ambient teal glow right -->
  <ellipse cx="750" cy="315" rx="300" ry="220" fill="#0D4A28" opacity="0.15"/>

  <!-- ── PRODUCT LABEL (main focal object) ── -->
  <g transform="translate(490, 90)" filter="url(#shadow-label)">
    <!-- Label body -->
    <rect x="0" y="0" width="340" height="460" rx="6" fill="url(#label-grad)"/>
    <!-- Label top color band -->
    <rect x="0" y="0" width="340" height="60" rx="6" fill="#1A5C32"/>
    <rect x="0" y="42" width="340" height="18" fill="#1A5C32"/>
    <!-- Brand area -->
    <text x="170" y="35" font-family="'Bebas Neue', sans-serif" font-size="26" fill="#AFCC00" text-anchor="middle" letter-spacing="2">ЧЕСТНЫЙ ЗНАК</text>

    <!-- Product name -->
    <text x="170" y="100" font-family="'Bebas Neue', sans-serif" font-size="22" fill="#111" text-anchor="middle" letter-spacing="1">МОЛОКО ПАСТЕРИЗОВАННОЕ</text>
    <text x="170" y="124" font-family="Inter, sans-serif" font-size="13" fill="#333" text-anchor="middle">3,2% жирности · 1 л</text>

    <!-- Divider -->
    <rect x="20" y="136" width="300" height="1" fill="#C0BAB0"/>

    <!-- DataMatrix code on label -->
    <g transform="translate(40, 150)">
      <rect x="0" y="0" width="120" height="120" fill="#fff" rx="2"/>
      <!-- QR-like pattern -->
      <g fill="#111">
        <!-- Corner markers -->
        <rect x="8" y="8" width="28" height="28" fill="none" stroke="#111" stroke-width="4"/>
        <rect x="15" y="15" width="14" height="14"/>
        <rect x="84" y="8" width="28" height="28" fill="none" stroke="#111" stroke-width="4"/>
        <rect x="91" y="15" width="14" height="14"/>
        <rect x="8" y="84" width="28" height="28" fill="none" stroke="#111" stroke-width="4"/>
        <rect x="15" y="91" width="14" height="14"/>
        <!-- Data cells -->
        <rect x="50" y="8" width="6" height="6"/>
        <rect x="60" y="8" width="6" height="6"/>
        <rect x="70" y="8" width="6" height="6"/>
        <rect x="50" y="18" width="6" height="6"/>
        <rect x="64" y="18" width="6" height="6"/>
        <rect x="50" y="30" width="6" height="6"/>
        <rect x="56" y="36" width="6" height="6"/>
        <rect x="66" y="30" width="6" height="6"/>
        <rect x="70" y="40" width="6" height="6"/>
        <rect x="84" y="50" width="6" height="6"/>
        <rect x="84" y="62" width="6" height="6"/>
        <rect x="50" y="50" width="6" height="6"/>
        <rect x="60" y="56" width="6" height="6"/>
        <rect x="50" y="64" width="6" height="6"/>
        <rect x="66" y="64" width="6" height="6"/>
        <rect x="50" y="76" width="6" height="6"/>
        <rect x="62" y="76" width="6" height="6"/>
        <rect x="74" y="76" width="6" height="6"/>
        <rect x="84" y="76" width="6" height="6"/>
        <rect x="84" y="86" width="6" height="6"/>
        <rect x="84" y="96" width="6" height="6"/>
        <rect x="84" y="106" width="6" height="6"/>
        <rect x="40" y="84" width="6" height="6"/>
        <rect x="40" y="96" width="6" height="6"/>
        <rect x="40" y="108" width="6" height="6"/>
      </g>
    </g>

    <!-- Label info fields -->
    <g font-family="Inter, sans-serif" font-size="11" fill="#333">
      <text x="175" y="165">01 04607087</text>
      <text x="175" y="182">0312001 21 ABC</text>
      <text x="175" y="199">17 260601</text>
      <text x="175" y="216">10 П5АА21001</text>
    </g>
    <text x="175" y="200" font-size="9" fill="#888">GTIN / Серийный номер</text>

    <!-- Barcode at bottom of label -->
    <g transform="translate(20, 290)">
      <rect x="0" y="0" width="300" height="70" fill="#fff" rx="2"/>
      <!-- EAN-13 barcode bars (simplified visual) -->
      <g fill="#111">
        <rect x="10" y="5" width="2" height="52"/>
        <rect x="14" y="5" width="4" height="52"/>
        <rect x="20" y="5" width="2" height="52"/>
        <rect x="24" y="5" width="2" height="52"/>
        <rect x="28" y="5" width="4" height="52"/>
        <rect x="34" y="5" width="2" height="52"/>
        <rect x="38" y="5" width="4" height="52"/>
        <rect x="44" y="5" width="2" height="52"/>
        <rect x="48" y="5" width="2" height="52"/>
        <rect x="52" y="5" width="4" height="52"/>
        <rect x="58" y="5" width="2" height="52"/>
        <rect x="62" y="5" width="2" height="52"/>
        <rect x="66" y="5" width="4" height="52"/>
        <rect x="72" y="5" width="2" height="52"/>
        <rect x="76" y="5" width="4" height="52"/>
        <rect x="82" y="5" width="2" height="52"/>
        <rect x="86" y="5" width="2" height="52"/>
        <rect x="90" y="5" width="4" height="52"/>
        <rect x="96" y="5" width="2" height="52"/>
        <rect x="100" y="5" width="2" height="52"/>
        <rect x="104" y="5" width="4" height="52"/>
        <rect x="110" y="5" width="2" height="52"/>
        <!-- Center guard -->
        <rect x="145" y="5" width="2" height="58"/>
        <rect x="149" y="5" width="2" height="58"/>
        <!-- Right half -->
        <rect x="155" y="5" width="4" height="52"/>
        <rect x="161" y="5" width="2" height="52"/>
        <rect x="165" y="5" width="2" height="52"/>
        <rect x="169" y="5" width="4" height="52"/>
        <rect x="175" y="5" width="2" height="52"/>
        <rect x="179" y="5" width="4" height="52"/>
        <rect x="185" y="5" width="2" height="52"/>
        <rect x="189" y="5" width="2" height="52"/>
        <rect x="193" y="5" width="4" height="52"/>
        <rect x="199" y="5" width="2" height="52"/>
        <rect x="203" y="5" width="2" height="52"/>
        <rect x="207" y="5" width="4" height="52"/>
        <rect x="213" y="5" width="2" height="52"/>
        <rect x="217" y="5" width="4" height="52"/>
        <rect x="223" y="5" width="2" height="52"/>
        <rect x="227" y="5" width="2" height="52"/>
        <rect x="231" y="5" width="4" height="52"/>
        <rect x="237" y="5" width="2" height="52"/>
        <rect x="241" y="5" width="2" height="52"/>
        <rect x="245" y="5" width="4" height="52"/>
        <rect x="251" y="5" width="2" height="52"/>
        <rect x="255" y="5" width="4" height="52"/>
        <rect x="261" y="5" width="2" height="52"/>
        <!-- Right guard -->
        <rect x="276" y="5" width="2" height="58"/>
        <rect x="280" y="5" width="4" height="58"/>
        <rect x="286" y="5" width="2" height="58"/>
      </g>
      <text x="150" y="66" font-family="monospace" font-size="10" fill="#111" text-anchor="middle">4 607087 031200</text>
    </g>

    <!-- Best before -->
    <text x="20" y="390" font-family="Inter, sans-serif" font-size="11" fill="#555">Годен до: 01.06.2026</text>
    <text x="20" y="408" font-family="Inter, sans-serif" font-size="11" fill="#555">Масса нетто: 1000 г</text>
    <text x="20" y="426" font-family="Inter, sans-serif" font-size="11" fill="#555">ГОСТ 31450-2013</text>

    <!-- Teal verification checkmark -->
    <circle cx="305" cy="410" r="22" fill="#1A5C32" opacity="0.9"/>
    <text x="305" y="418" font-size="20" text-anchor="middle" fill="#AFCC00">✓</text>
  </g>

  <!-- Teal scan laser line across label -->
  <rect x="490" y="338" width="340" height="2" fill="#00CC66" opacity="0.8" filter="url(#glow-teal)"/>

  <!-- ── TEXT AREA (LEFT) ── -->
  <rect x="60" y="80" width="170" height="22" fill="#1A5C32" opacity="0.7"/>
  <text x="72" y="96" font-family="'Bebas Neue', sans-serif" font-size="12" fill="#AFCC00" letter-spacing="2">МАРКИРОВКА</text>

  <text x="60" y="150" font-family="'Bebas Neue', sans-serif" font-size="42" fill="#FFFFFF" letter-spacing="1.5">ЧЕСТНЫЙ ЗНАК:</text>
  <text x="60" y="200" font-family="'Bebas Neue', sans-serif" font-size="42" fill="#FFFFFF" letter-spacing="1.5">КАК УСТРОЕН</text>
  <text x="60" y="250" font-family="'Bebas Neue', sans-serif" font-size="42" fill="#AFCC00" letter-spacing="1.5">УЧЁТ ТОВАРА</text>

  <rect x="60" y="268" width="240" height="2" fill="#1A9C50" opacity="0.8"/>

  <text x="60" y="298" font-family="Inter, sans-serif" font-size="15" fill="#6AAA88">DataMatrix — цифровой паспорт</text>
  <text x="60" y="320" font-family="Inter, sans-serif" font-size="15" fill="#6AAA88">каждой единицы товара.</text>

  <!-- Footer -->
  <rect x="60" y="500" width="200" height="32" rx="3" fill="#071A10" stroke="#1A4A28" stroke-width="1"/>
  <text x="160" y="521" font-family="Inter, sans-serif" font-size="12" fill="#6AAA88" text-anchor="middle">Этикетка · 2026</text>
</svg>
